# xmcd
#
# Track frame offsets:
#	150
#	15490
#	29460
#	42439
#	56801
#	71445
#	86223
#	100571
#	115855
#	132961
#	148323
#	157748
#
# Disc length: 2302 seconds
# Revision: 0
# Processed by: cddbd v1.5.2PL0 Copyright (c) Steve Scherf et al.
# Submitted via: dBpowerAMP V12.0
#
DISCID=9f08fc0c
DTITLE=Nell Robinson and Jim Nunally Band - Baby Lets Take The Long Way Home
DYEAR=2017
DGENRE=Country
TTITLE0=Baby Lets Take The Long Way Home
TTITLE1=I Hear a Southwind
TTITLE2=Tempest
TTITLE3=Hillbilly Boy
TTITLE4=Pardon Me
TTITLE5=I'm Brilliant
TTITLE6=Home's Where I Long to Be
TTITLE7=Sophia
TTITLE8=Shackled and Chained
TTITLE9=Complicated
TTITLE10=I'd Jump the Mississippi
TTITLE11=Mirror
EXTD=
EXTT0=
EXTT1=
EXTT2=
EXTT3=
EXTT4=
EXTT5=
EXTT6=
EXTT7=
EXTT8=
EXTT9=
EXTT10=
EXTT11=
PLAYORDER=
